 <svg  version="1.0" xmlns="http://www.w3.org/2000/svg"  width="300.000000pt" height="225.000000pt" viewBox="0 0 300.000000 225.000000"  preserveAspectRatio="xMidYMid meet">  <g transform="translate(0.000000,225.000000) scale(0.100000,-0.100000)" fill="#2066d1" stroke="none"> <path d="M1899 1507 c28 -30 41 -89 33 -153 -4 -37 -8 -44 -21 -38 -94 39 -140 48 -271 48 -133 1 -137 0 -200 -31 -36 -17 -81 -48 -99 -67 -32 -33 -33 -36 -13 -36 12 0 36 -13 54 -29 27 -24 33 -36 33 -70 0 -53 -17 -71 -45 -46 -15 13 -20 31 -20 67 0 44 -2 48 -24 48 -29 0 -36 -16 -29 -67 4 -29 1 -42 -12 -53 -15 -13 -19 -12 -32 5 -20 28 -10 94 27 172 16 35 25 63 19 63 -15 0 -180 -65 -228 -90 -41 -20 -44 -21 -62 -4 -11 10 -33 38 -49 62 -37 56 -39 101 -7 138 20 23 26 25 45 15 28 -15 38 -55 23 -88 -16 -35 -9 -38 35 -17 48 24 61 45 49 80 -16 44 -58 68 -118 68 -88 0 -147 -49 -147 -121 1 -41 36 -113 78 -156 l37 -38 -25 -20 c-117 -93 -155 -160 -148 -258 7 -97 65 -156 167 -168 100 -12 206 39 237 113 20 47 17 141 -5 189 -10 22 -39 63 -64 91 l-47 52 23 14 c41 28 107 58 107 51 0 -5 -7 -27 -15 -51 -19 -54 -10 -118 21 -149 30 -30 46 -29 86 6 l33 29 18 -24 c10 -13 26 -24 36 -24 30 0 70 39 82 81 14 46 33 50 53 10 21 -41 64 -56 113 -41 21 7 44 17 50 22 9 7 22 2 45 -17 32 -27 49 -29 116 -9 19 6 22 3 22 -22 0 -16 8 -45 18 -64 69 -130 306 -61 288 83 -9 73 -72 111 -137 84 l-34 -14 32 -16 c76 -40 58 -157 -23 -157 -50 0 -68 34 -61 114 3 34 15 85 25 112 l20 49 84 -4 c79 -3 86 -1 116 24 63 53 33 135 -49 135 -37 0 -39 -1 -25 -16 38 -38 1 -94 -62 -94 -21 0 -41 2 -44 5 -2 3 1 33 8 67 23 112 -2 156 -101 173 l-40 8 24 -26z m-78 -197 c99 -31 97 -27 71 -109 -32 -98 -78 -132 -130 -95 -29 20 -28 30 4 38 61 16 96 93 58 130 -26 27 -81 20 -115 -13 -25 -25 -29 -37 -29 -84 0 -48 -3 -55 -25 -65 -39 -18 -62 -15 -79 10 -15 22 -15 23 23 41 47 22 67 60 52 100 -16 40 -43 50 -90 31 -40 -16 -71 -60 -71 -102 0 -34 -17 -34 -29 0 -6 17 -18 40 -27 49 -9 10 -13 23 -9 29 9 15 78 48 122 60 56 14 200 3 274 -20z m-213 -78 c4 -28 -14 -52 -39 -52 -22 0 -25 29 -8 61 14 26 43 20 47 -9z m180 -14 c2 -18 -4 -31 -20 -42 -32 -22 -38 -20 -38 13 0 45 10 62 34 59 14 -2 22 -11 24 -30z m-752 -130 c39 -47 54 -89 54 -153 0 -67 -18 -114 -55 -143 -35 -28 -75 -28 -108 -1 -45 34 -54 107 -26 197 11 34 84 132 98 132 5 0 22 -15 37 -32z"/> </g> </svg> 